<svg width="1024" height="1024" viewBox="0 0 1024 1024" fill="none" xmlns="http://www.w3.org/2000/svg">
  <!-- Red Enso Circle - Zen Brush Stroke -->
  <defs>
    <linearGradient id="redGradient" x1="0%" y1="0%" x2="100%" y2="100%">
      <stop offset="0%" style="stop-color:#DC2626;stop-opacity:1" />
      <stop offset="50%" style="stop-color:#EF4444;stop-opacity:1" />
      <stop offset="100%" style="stop-color:#DC2626;stop-opacity:1" />
    </linearGradient>
  </defs>
  
  <!-- Main Enso Circle Path -->
  <path d="M 512 50 
           C 650 50, 780 100, 870 200
           C 950 290, 990 410, 990 512
           C 990 650, 940 780, 840 870
           C 750 950, 630 990, 512 990
           C 380 990, 250 940, 160 850
           C 70 760, 30 640, 30 512
           C 30 380, 80 250, 170 160
           C 260 70, 380 30, 512 30
           L 512 50" 
        stroke="url(#redGradient)" 
        stroke-width="80" 
        fill="none" 
        stroke-linecap="round"
        opacity="0.95"/>
  
  <!-- Inner highlight stroke -->
  <path d="M 512 80 
           C 630 80, 740 120, 820 210
           C 890 290, 930 390, 930 512
           C 930 630, 890 740, 810 820
           C 730 900, 620 940, 512 940
           C 400 940, 290 900, 210 820
           C 130 740, 90 630, 90 512
           C 90 400, 130 290, 210 210
           C 290 130, 400 90, 512 90" 
        stroke="rgba(255,255,255,0.3)" 
        stroke-width="4" 
        fill="none" 
        stroke-linecap="round"/>
  
  <!-- Outer brush texture -->
  <path d="M 512 20 
           C 660 20, 800 80, 900 190
           C 980 280, 1020 400, 1020 512
           C 1020 660, 960 800, 860 900
           C 770 980, 650 1020, 512 1020
           C 370 1020, 230 960, 130 860
           C 50 770, 10 650, 10 512
           C 10 370, 70 230, 160 130
           C 250 50, 370 10, 512 10" 
        stroke="url(#redGradient)" 
        stroke-width="15" 
        fill="none" 
        stroke-linecap="round"
        opacity="0.4"/>
</svg>
